<?xml version="1.0" encoding="utf-8"?>
<!-- Generator: Adobe Illustrator 27.3.0, SVG Export Plug-In . SVG Version: 6.00 Build 0)  -->
<svg version="1.1" id="FR_x5F_WHITE" xmlns="http://www.w3.org/2000/svg" xmlns:xlink="http://www.w3.org/1999/xlink" x="0px"
	 y="0px" viewBox="0 0 195 40" style="enable-background:new 0 0 195 40;" xml:space="preserve">
<style type="text/css">
	.st0{fill:#E1251B;}
	.st1{fill:#FFFFFF;}
	.st2{fill:#868686;}
</style>
<g>
	<g>
		<polygon class="st0" points="10.6,2.9 2.5,2.9 2.5,11 4.1,11 4.1,4.5 10.6,4.5 		"/>
		<polygon class="st0" points="10.6,32.1 2.5,32.1 2.5,24 4.1,24 4.1,30.5 10.6,30.5 		"/>
		<polygon class="st0" points="184.4,2.9 192.5,2.9 192.5,11 190.9,11 190.9,4.5 184.4,4.5 		"/>
		<polygon class="st0" points="184.4,32.1 192.5,32.1 192.5,24 190.9,24 190.9,30.5 184.4,30.5 		"/>
	</g>
	<g>
		<polygon class="st1" points="64.6,14.3 64.6,24.1 61.3,24.1 61.3,14.3 57.2,14.3 57.2,11.1 68.6,11.1 68.6,14.3 		"/>
		<path class="st1" d="M56.1,17.6c0,3.7-3.1,6.8-6.9,6.8c-3.8,0-6.9-3-6.9-6.8s3.1-6.8,6.9-6.8C53,10.8,56.1,13.9,56.1,17.6z
			 M49.2,14.1c-2,0-3.6,1.6-3.6,3.6c0,2,1.6,3.6,3.6,3.6c2,0,3.6-1.6,3.6-3.6C52.8,15.7,51.2,14.1,49.2,14.1z"/>
		<path class="st1" d="M83,17.6c0,3.7-3.1,6.8-6.9,6.8c-3.8,0-6.9-3-6.9-6.8s3.1-6.8,6.9-6.8C79.9,10.8,83,13.9,83,17.6z M76.1,14.1
			c-2,0-3.6,1.6-3.6,3.6c0,2,1.6,3.6,3.6,3.6s3.6-1.6,3.6-3.6C79.7,15.7,78.1,14.1,76.1,14.1z"/>
		<path class="st1" d="M19.6,20.9h-1.5v3.5h-3.3v-13h6.5c3,0,4.8,1.8,4.8,4.8h0c0,2.1-0.9,3.6-2.6,4.3
			C23.5,20.5,22.8,20.9,19.6,20.9z M21.1,17.9c1.1,0,1.7-0.7,1.7-1.7h0c0-1.1-0.6-1.7-1.7-1.7h-3v3.5L21.1,17.9z"/>
		<path class="st1" d="M36.7,11.4c0,1.8,0,3.7,0,5.5c-1.8,0-5.2,0-5.2,0l0-5.5c0,0-0.1,0-3.3,0c0,4.4,0,8.7,0,13c1.1,0,2.2,0,3.3,0
			c0-1.5,0-3,0-4.5c1.8,0,3.5,0,5.2,0c0,1.5,0,3,0,4.5c1.1,0,2.2,0,3.3,0c0-1.5,0-13,0-13S39.9,11.4,36.7,11.4z"/>
		<path class="st1" d="M97.6,19.2c1.5,0.6,2.5,0.8,2.5,1.5c0,0.4-0.5,0.8-1.8,0.8c-0.7,0-2-0.3-2.1-1.3H93c0,2.5,2.1,4.1,5.3,4.1
			c3.3,0,5.4-1.3,5.4-4c0-2.5-2.4-3.5-4.7-4.4c-1.3-0.5-1.7-0.7-1.9-0.8c-0.1-0.1-0.4-0.2-0.4-0.6c0-0.7,1.1-0.9,1.6-0.9
			c1,0,1.9,0.5,2,1.5h3.2v-0.3c0-2.6-2.5-4.1-5.2-4.1c-3.1,0-5.2,1.6-5.2,4C93.1,17.1,94.5,18,97.6,19.2z"/>
		<path class="st1" d="M109.6,16.5c1.8,0,3.6,0,5.4,0c0,1,0,2,0,3c-1.8,0-3.6,0-5.4,0c0,0.6,0,1.1,0,1.7c2.2,0,4.4,0,6.6,0
			c0,1.1,0,2.1,0,3.2c-3.3,0-6.7,0-10,0c0-4.3,0-8.7,0-13c3.3,0,6.6,0,10,0c0,1,0,2.1,0,3.2c-2.2,0-4.4,0-6.6,0
			C109.6,15.2,109.6,15.8,109.6,16.5z"/>
		<path class="st1" d="M131,24.4l-3.7,0c-0.2,0-0.3-0.1-0.4-0.2c-0.7-1-1.4-2-2.2-3c-0.1-0.2-0.2-0.2-0.4-0.2h-1.5v3.5h-3.3v-13h6.5
			c3,0,4.8,1.8,4.8,4.8h0c0,2.1-0.9,3.6-2.6,4.3L131,24.4z M125.8,17.9c1.1,0,1.7-0.7,1.7-1.7h0c0-1.1-0.6-1.7-1.7-1.7h-3v3.5
			L125.8,17.9z"/>
		<rect x="147.4" y="11.4" class="st1" width="3.3" height="13"/>
		<polygon class="st1" points="142.3,11.4 138.7,20 135.2,11.4 131.6,11.4 136.9,24.4 136.9,24.4 140.5,24.4 140.6,24.4 146.1,11.4 
					"/>
		<path class="st1" d="M171.8,16.2c1.8,0,3.6,0,5.4,0c0,1,0,2,0,3c-1.8,0-3.6,0-5.4,0c0,0.6,0,1.1,0,1.7c2.2,0,4.4,0,6.6,0
			c0,1.1,0,2.1,0,3.2c-3.3,0-6.7,0-10,0c0-4.3,0-8.7,0-13c3.3,0,6.6,0,10,0c0,1,0,2.1,0,3.2c-2.2,0-4.4,0-6.6,0
			C171.8,15,171.8,15.6,171.8,16.2z"/>
		<path class="st1" d="M163.2,19.3c-0.6,1.1-1.8,1.9-3.1,1.9c-2,0-3.6-1.6-3.6-3.6c0-2,1.6-3.6,3.6-3.6c1.4,0,2.5,0.8,3.1,1.9
			l3.1-1.4c-1.1-2.2-3.5-3.8-6.2-3.8c-3.8,0-6.9,3-6.9,6.8s3.1,6.8,6.9,6.8c2.7,0,5.1-1.5,6.2-3.8L163.2,19.3z"/>
	</g>
	<g>
		<path class="st2" d="M54.1,35.7c-0.5,0.4-1,0.8-1.6,1s-1.2,0.4-1.8,0.4c-0.9,0-1.6-0.3-2.3-0.9c-0.7-0.7-1.1-1.5-1.1-2.5
			c0-0.9,0.3-1.7,0.9-2.4c0.6-0.7,1.4-1.1,2.4-1.1c0.6,0,1.2,0.1,1.6,0.3c0.4,0.2,0.9,0.5,1.4,0.9l-0.7,1c-0.3-0.3-0.6-0.5-1-0.7
			c-0.4-0.2-0.7-0.2-1.1-0.2c-0.6,0-1.1,0.2-1.6,0.7c-0.5,0.4-0.7,0.9-0.7,1.5c0,0.6,0.3,1.2,0.8,1.6c0.5,0.3,1,0.5,1.6,0.5
			c0.9,0,1.7-0.4,2.4-1.1L54.1,35.7z"/>
		<path class="st2" d="M61.2,37l-1.4,0l-1.5-2.5l-2,0V37h-1.1v-6.7h4.4c0.4,0,0.8,0.2,1.1,0.7c0.3,0.4,0.4,0.9,0.4,1.4
			c0,0.5-0.1,0.9-0.3,1.2c-0.3,0.4-0.6,0.6-1,0.7L61.2,37z M60,32.4c0-0.2-0.1-0.3-0.2-0.5s-0.3-0.2-0.4-0.2h-3v1.5h3
			c0.2,0,0.4-0.1,0.5-0.2C60,32.8,60,32.6,60,32.4z"/>
		<path class="st2" d="M68.3,37h-5.7v-6.7h5.5v1.3h-4.4v1.3h2.9v1.3h-2.9v1.5h4.6V37z"/>
		<path class="st2" d="M75.4,37h-5.7v-6.7h5.5v1.3h-4.4v1.3h2.9v1.3h-2.9v1.5h4.6V37z"/>
		<path class="st2" d="M82.9,37l-1.4,0L80,34.5l-2,0V37h-1.1v-6.7h4.4c0.4,0,0.8,0.2,1.1,0.7c0.3,0.4,0.4,0.9,0.4,1.4
			c0,0.5-0.1,0.9-0.3,1.2c-0.3,0.4-0.6,0.6-1,0.7L82.9,37z M81.6,32.4c0-0.2-0.1-0.3-0.2-0.5s-0.3-0.2-0.4-0.2h-3v1.5h3
			c0.2,0,0.4-0.1,0.5-0.2C81.6,32.8,81.6,32.6,81.6,32.4z"/>
		<path class="st2" d="M95.7,37h-5v-6.7h1.1v5.3h3.9V37z"/>
		<path class="st2" d="M105.2,37h-1.1v-3.2h-3.6V37h-1.1v-6.7h1.1v2.1h3.6v-2.1h1.1V37z"/>
		<path class="st2" d="M108.3,37h-1.2v-6.7h1.2V37z"/>
		<path class="st2" d="M115.9,35c0,0.8-0.3,1.3-1,1.7c-0.5,0.3-1.2,0.4-2,0.4c-0.7,0-1.3-0.1-1.8-0.3s-1-0.5-1.4-0.9l0.8-0.9
			c0.3,0.3,0.7,0.5,1.1,0.7c0.4,0.2,0.9,0.2,1.3,0.2c0.5,0,0.9-0.1,1.3-0.2c0.4-0.2,0.6-0.5,0.6-0.8c0-0.2-0.1-0.3-0.3-0.4
			c-0.2-0.1-0.4-0.2-0.6-0.2l-2.4-0.2c-0.4,0-0.8-0.2-1.1-0.6c-0.3-0.4-0.5-0.8-0.5-1.3c0-0.8,0.3-1.3,0.9-1.7
			c0.5-0.3,1-0.4,1.8-0.4c0.6,0,1.1,0.1,1.6,0.3c0.5,0.2,1,0.5,1.5,0.9l-0.7,0.8c-0.7-0.5-1.5-0.7-2.3-0.7c-0.6,0-1,0.1-1.2,0.2
			c-0.2,0.1-0.3,0.3-0.3,0.5c0,0.2,0.1,0.3,0.3,0.5c0.2,0.1,0.4,0.2,0.6,0.2l2.6,0.2c0.4,0,0.8,0.2,1,0.6S115.9,34.5,115.9,35z"/>
		<path class="st2" d="M122.4,31.6h-2.3V37h-1.2v-5.4h-2.4v-1.2h5.8V31.6z"/>
		<path class="st2" d="M130.1,33.6c0,1-0.3,1.9-1,2.6c-0.7,0.7-1.5,1-2.5,1c-1,0-1.9-0.3-2.5-1c-0.6-0.7-0.9-1.5-0.9-2.6
			c0-1,0.3-1.8,1-2.4c0.7-0.6,1.5-1,2.4-1c0.9,0,1.7,0.3,2.4,0.9C129.7,31.7,130.1,32.5,130.1,33.6z M128.9,33.6
			c0-0.5-0.2-1-0.7-1.4s-1-0.6-1.7-0.6c-0.6,0-1.2,0.2-1.6,0.6c-0.4,0.4-0.7,0.9-0.7,1.4c0,0.6,0.2,1.2,0.7,1.6
			c0.4,0.4,1,0.6,1.6,0.6c0.7,0,1.2-0.2,1.7-0.6C128.6,34.9,128.9,34.3,128.9,33.6z"/>
		<path class="st2" d="M132.7,37h-1.2v-6.7h1.2V37z"/>
		<path class="st2" d="M140.7,37l-1.4,0l-1.5-2.5l-2,0V37h-1.1v-6.7h4.4c0.4,0,0.8,0.2,1.1,0.7c0.3,0.4,0.4,0.9,0.4,1.4
			c0,0.5-0.1,0.9-0.3,1.2c-0.3,0.4-0.6,0.6-1,0.7L140.7,37z M139.5,32.4c0-0.2-0.1-0.3-0.2-0.5s-0.3-0.2-0.4-0.2h-3v1.5h3
			c0.2,0,0.4-0.1,0.5-0.2C139.4,32.8,139.5,32.6,139.5,32.4z"/>
		<path class="st2" d="M147.8,37H142v-6.7h5.5v1.3h-4.4v1.3h2.9v1.3h-2.9v1.5h4.6V37z"/>
		<polygon class="st2" points="97.1,32.8 97.9,32.8 97.9,30.4 96.7,30.4 		"/>
		<polygon class="st2" points="66.9,28.4 65.4,28.4 64.5,29.8 65.1,29.8 		"/>
	</g>
</g>
</svg>
